<svg width="99" height="68" viewBox="0 0 99 68" fill="none" xmlns="http://www.w3.org/2000/svg">
<path d="M58.5124 31.4242C61.8614 34.7519 66.2846 36.5726 70.9921 36.5726C75.6996 36.5726 80.1544 34.7519 83.4718 31.4242L79.6173 27.5943C77.3109 29.886 74.2463 31.1417 70.9921 31.1417C67.7379 31.1417 64.6733 29.886 62.3669 27.5943C60.0605 25.3026 58.7968 22.2575 58.7968 19.0241C58.7968 15.7906 60.0605 12.7455 62.3669 10.4538L58.5124 6.59253C55.1634 9.92016 53.331 14.3152 53.331 18.9927C53.331 23.7016 55.195 28.0966 58.5124 31.4242Z" fill="#96C7DB"/>
<path d="M86.2836 34.1868C82.2079 38.2365 76.7737 40.4653 70.992 40.4653C65.2103 40.4653 59.8077 38.2365 55.7005 34.1868C47.2648 25.8049 47.2648 12.1804 55.7005 3.82992L51.8776 0L7.39304 44.2011H15.102L44.2318 15.2569C43.9474 17.1719 43.9158 19.0868 44.0422 21.0018C40.5985 24.6748 36.9967 28.1594 33.2054 31.8323C29.6985 35.2227 26.0336 38.7701 22.5266 42.4745C21.8947 43.0396 21.2944 43.636 20.6942 44.2011H28.4031C31.2466 41.2816 34.1533 38.4562 36.9967 35.6936C39.7454 33.0252 42.5889 30.2941 45.3376 27.4687C46.6329 31.33 48.7813 34.9402 51.8776 37.9853C56.9958 43.071 63.7885 45.8649 71.0236 45.8649C78.2587 45.8649 85.0514 43.071 90.1696 37.9853L86.2836 34.1868Z" fill="#96C7DB"/>
<path d="M5.27621 59.207L3.94926 63.0055H6.57157L5.27621 59.207ZM3.191 65.1088L2.36956 67.4947H0L4.20201 55.7852H6.35041L10.584 67.4947H8.21446L7.36142 65.1402H3.191V65.1088Z" fill="#96C7DB"/>
<path d="M20.6625 55.7539V63.2881C20.6625 65.8937 19.0512 67.6203 16.2078 67.6203C13.3643 67.6203 11.753 65.8937 11.753 63.2881V55.7539H13.9962V63.2881C13.9962 64.638 14.944 65.3914 16.1762 65.3914C17.4084 65.3914 18.3562 64.638 18.3562 63.2881V55.7539H20.6625Z" fill="#96C7DB"/>
<path d="M22.5898 63.7903H24.9277C25.0541 64.7635 25.844 65.4227 26.9498 65.4227C27.9292 65.4227 28.6242 65.046 28.6242 64.2612C28.6242 63.6019 28.2451 63.2252 27.4237 63.0368L25.4332 62.5031C23.6324 62.0323 22.7478 60.7765 22.7478 59.0499C22.7478 56.6954 24.6118 55.6281 26.6654 55.6281C29.035 55.6281 30.4883 57.0093 30.7411 58.9871H28.4031C28.2135 58.2023 27.3605 57.857 26.6338 57.857C25.686 57.857 25.0225 58.2337 25.0225 59.0499C25.0225 59.7406 25.5596 60.0231 26.1915 60.2115L28.1187 60.7451C29.9512 61.216 30.9306 62.3462 30.9306 64.3239C30.9306 66.4273 29.5405 67.7144 26.9814 67.7144C24.3591 67.6516 22.6846 66.1134 22.5898 63.7903Z" fill="#96C7DB"/>
<path d="M41.641 63.5706C41.5462 66.0193 39.9349 67.6517 37.1863 67.6517C34.3428 67.6517 32.7315 65.9251 32.7315 63.3194V59.929C32.7315 57.3233 34.3428 55.5967 37.1863 55.5967C39.9349 55.5967 41.5462 57.2291 41.641 59.6778H39.3663C39.2399 58.4849 38.3237 57.8256 37.1863 57.8256C35.9541 57.8256 35.0063 58.579 35.0063 59.929V63.3194C35.0063 64.6694 35.9541 65.4228 37.1863 65.4228C38.3237 65.4228 39.2399 64.7635 39.3663 63.5706H41.641Z" fill="black"/>
<path d="M48.8446 67.4948H46.5698V63.2254L42.3993 55.7539H44.9585L47.7072 60.6512L50.4559 55.7539H53.015L48.8446 63.2254V67.4948Z" fill="black"/>
<path d="M62.7143 63.5706C62.6196 66.0193 61.0083 67.6517 58.2596 67.6517C55.4161 67.6517 53.8048 65.9251 53.8048 63.3194V59.929C53.8048 57.3233 55.4161 55.5967 58.2596 55.5967C61.0083 55.5967 62.6196 57.2291 62.7143 59.6778H60.4396C60.3132 58.4849 59.397 57.8256 58.2596 57.8256C57.0274 57.8256 56.0796 58.579 56.0796 59.929V63.3194C56.0796 64.6694 57.0274 65.4228 58.2596 65.4228C59.397 65.4228 60.3132 64.7635 60.4396 63.5706H62.7143Z" fill="black"/>
<path d="M67.0744 65.2659H72.0031V67.4948H64.8312V55.7539H67.0744V65.2659Z" fill="black"/>
<path d="M76.0786 55.7539H73.8354V67.4635H76.0786V55.7539Z" fill="black"/>
<path d="M87.5473 67.4948H85.2726L80.9126 59.9291V67.4948H78.6378V55.7539H80.9126L85.2726 63.3195V55.7539H87.5473V67.4948Z" fill="black"/>
<path d="M94.3085 60.7765H98.7633V63.288C98.7633 65.8936 97.152 67.6202 94.3085 67.6202C91.465 67.6202 89.8537 65.8936 89.8537 63.288V59.8975C89.8537 57.2918 91.465 55.5652 94.3085 55.5652C96.9624 55.5652 98.5421 57.1035 98.7317 59.4266H96.4569C96.2673 58.3592 95.3827 57.7941 94.3085 57.7941C93.0763 57.7941 92.1285 58.5476 92.1285 59.8975V63.288C92.1285 64.6379 93.0763 65.3913 94.3085 65.3913C95.5407 65.3913 96.4885 64.6379 96.4885 63.288V62.974H94.3085V60.7765Z" fill="black"/>
</svg>
