<svg width="99" height="68" viewBox="0 0 99 68" fill="none" xmlns="http://www.w3.org/2000/svg">
<path d="M58.5123 31.4242C61.8613 34.7519 66.2844 36.5726 70.992 36.5726C75.6995 36.5726 80.1543 34.7519 83.4716 31.4242L79.6172 27.5943C77.3108 29.886 74.2462 31.1417 70.992 31.1417C67.7378 31.1417 64.6731 29.886 62.3668 27.5943C60.0604 25.3026 58.7966 22.2575 58.7966 19.0241C58.7966 15.7906 60.0604 12.7455 62.3668 10.4538L58.5123 6.59253C55.1633 9.92016 53.3309 14.3152 53.3309 18.9927C53.3309 23.7016 55.1949 28.0966 58.5123 31.4242Z" fill="#C73A34"/>
<path d="M86.2835 34.1868C82.2079 38.2365 76.7737 40.4653 70.992 40.4653C65.2102 40.4653 59.8076 38.2365 55.7004 34.1868C47.2648 25.8049 47.2648 12.1804 55.7004 3.82992L51.8775 0L7.39294 44.2011H15.1019L44.2317 15.2569C43.9474 17.1719 43.9158 19.0868 44.0422 21.0018C40.5984 24.6748 36.9967 28.1594 33.2054 31.8323C29.6984 35.2227 26.0335 38.7701 22.5265 42.4745C21.8947 43.0396 21.2944 43.636 20.6941 44.2011H28.4031C31.2465 41.2816 34.1532 38.4562 36.9967 35.6936C39.7453 33.0252 42.5888 30.2941 45.3375 27.4687C46.6329 31.33 48.7813 34.9402 51.8775 37.9853C56.9958 43.071 63.7885 45.8649 71.0236 45.8649C78.2586 45.8649 85.0514 43.071 90.1696 37.9853L86.2835 34.1868Z" fill="#C73A34"/>
<path d="M5.27623 59.207L3.94927 63.0055H6.57159L5.27623 59.207ZM3.19101 65.1088L2.36956 67.4947H0L4.20203 55.7852H6.35043L10.584 67.4947H8.21449L7.36144 65.1402H3.19101V65.1088Z" fill="#C73A34"/>
<path d="M20.6625 55.754V63.2882C20.6625 65.8938 19.0512 67.6204 16.2078 67.6204C13.3643 67.6204 11.753 65.8938 11.753 63.2882V55.754H13.9962V63.2882C13.9962 64.6381 14.944 65.3915 16.1762 65.3915C17.4083 65.3915 18.3562 64.6381 18.3562 63.2882V55.754H20.6625Z" fill="#C73A34"/>
<path d="M22.5897 63.7904H24.9277C25.0541 64.7636 25.844 65.4228 26.9498 65.4228C27.9292 65.4228 28.6243 65.0461 28.6243 64.2613C28.6243 63.602 28.2451 63.2253 27.4237 63.037L25.4332 62.5033C23.6323 62.0324 22.7477 60.7766 22.7477 59.05C22.7477 56.6955 24.6118 55.6282 26.6654 55.6282C29.035 55.6282 30.4883 57.0095 30.7411 58.9872H28.4031C28.2135 58.2024 27.3605 57.8571 26.6338 57.8571C25.686 57.8571 25.0225 58.2338 25.0225 59.05C25.0225 59.7407 25.5596 60.0232 26.1915 60.2116L28.1188 60.7453C29.9512 61.2162 30.9307 62.3463 30.9307 64.3241C30.9307 66.4274 29.5405 67.7145 26.9814 67.7145C24.359 67.6517 22.6845 66.1135 22.5897 63.7904Z" fill="#C73A34"/>
<path d="M41.6411 63.5706C41.5463 66.0193 39.935 67.6517 37.1863 67.6517C34.3429 67.6517 32.7316 65.9251 32.7316 63.3194V59.929C32.7316 57.3233 34.3429 55.5967 37.1863 55.5967C39.935 55.5967 41.5463 57.2291 41.6411 59.6778H39.3663C39.2399 58.4849 38.3237 57.8256 37.1863 57.8256C35.9541 57.8256 35.0063 58.579 35.0063 59.929V63.3194C35.0063 64.6694 35.9541 65.4228 37.1863 65.4228C38.3237 65.4228 39.2399 64.7635 39.3663 63.5706H41.6411Z" fill="black"/>
<path d="M48.8446 67.4949H46.5698V63.2255L42.3994 55.754H44.9585L47.7072 60.6513L50.4559 55.754H53.015L48.8446 63.2255V67.4949Z" fill="black"/>
<path d="M62.7142 63.5706C62.6195 66.0193 61.0082 67.6517 58.2595 67.6517C55.416 67.6517 53.8047 65.9251 53.8047 63.3194V59.929C53.8047 57.3233 55.416 55.5967 58.2595 55.5967C61.0082 55.5967 62.6195 57.2291 62.7142 59.6778H60.4395C60.3131 58.4849 59.3969 57.8256 58.2595 57.8256C57.0273 57.8256 56.0795 58.579 56.0795 59.929V63.3194C56.0795 64.6694 57.0273 65.4228 58.2595 65.4228C59.3969 65.4228 60.3131 64.7635 60.4395 63.5706H62.7142Z" fill="black"/>
<path d="M67.0744 65.266H72.0031V67.4949H64.8312V55.754H67.0744V65.266Z" fill="black"/>
<path d="M76.0786 55.754H73.8355V67.4636H76.0786V55.754Z" fill="black"/>
<path d="M87.5474 67.4949H85.2726L80.9126 59.9293V67.4949H78.6378V55.754H80.9126L85.2726 63.3197V55.754H87.5474V67.4949Z" fill="black"/>
<path d="M94.3085 60.7765H98.7632V63.288C98.7632 65.8936 97.152 67.6202 94.3085 67.6202C91.4651 67.6202 89.8538 65.8936 89.8538 63.288V59.8975C89.8538 57.2918 91.4651 55.5652 94.3085 55.5652C96.9624 55.5652 98.5421 57.1035 98.7317 59.4266H96.4569C96.2673 58.3592 95.3827 57.7941 94.3085 57.7941C93.0763 57.7941 92.1285 58.5476 92.1285 59.8975V63.288C92.1285 64.6379 93.0763 65.3913 94.3085 65.3913C95.5407 65.3913 96.4885 64.6379 96.4885 63.288V62.974H94.3085V60.7765Z" fill="black"/>
</svg>
