<svg width="99" height="68" viewBox="0 0 99 68" fill="none" xmlns="http://www.w3.org/2000/svg">
<path d="M58.5122 31.4242C61.8612 34.7519 66.2844 36.5726 70.9919 36.5726C75.6994 36.5726 80.1542 34.7519 83.4716 31.4242L79.6171 27.5943C77.3107 29.886 74.2461 31.1417 70.9919 31.1417C67.7377 31.1417 64.6731 29.886 62.3667 27.5943C60.0603 25.3026 58.7966 22.2575 58.7966 19.0241C58.7966 15.7906 60.0603 12.7455 62.3667 10.4538L58.5122 6.59253C55.1633 9.92016 53.3308 14.3152 53.3308 18.9927C53.3308 23.7016 55.1949 28.0966 58.5122 31.4242Z" fill="#2E604A"/>
<path d="M86.2835 34.1868C82.2078 38.2365 76.7736 40.4653 70.9919 40.4653C65.2102 40.4653 59.8076 38.2365 55.7003 34.1868C47.2647 25.8049 47.2647 12.1804 55.7003 3.82992L51.8774 0L7.39288 44.2011H15.1019L44.2317 15.2569C43.9473 17.1719 43.9157 19.0868 44.0421 21.0018C40.5983 24.6748 36.9966 28.1594 33.2053 31.8323C29.6984 35.2227 26.0334 38.7701 22.5265 42.4745C21.8946 43.0396 21.2943 43.636 20.694 44.2011H28.403C31.2465 41.2816 34.1531 38.4562 36.9966 35.6936C39.7453 33.0252 42.5888 30.2941 45.3375 27.4687C46.6328 31.33 48.7812 34.9402 51.8774 37.9853C56.9957 43.071 63.7884 45.8649 71.0235 45.8649C78.2586 45.8649 85.0513 43.071 90.1695 37.9853L86.2835 34.1868Z" fill="#2E604A"/>
<path d="M5.27623 59.207L3.94927 63.0055H6.57159L5.27623 59.207ZM3.19101 65.1088L2.36956 67.4947H0L4.20203 55.7852H6.35043L10.584 67.4947H8.21449L7.36144 65.1402H3.19101V65.1088Z" fill="#2E604A"/>
<path d="M20.6625 55.7539V63.2881C20.6625 65.8937 19.0512 67.6203 16.2077 67.6203C13.3642 67.6203 11.7529 65.8937 11.7529 63.2881V55.7539H13.9961V63.2881C13.9961 64.638 14.9439 65.3914 16.1761 65.3914C17.4083 65.3914 18.3561 64.638 18.3561 63.2881V55.7539H20.6625Z" fill="#2E604A"/>
<path d="M22.5897 63.7903H24.9277C25.0541 64.7635 25.844 65.4227 26.9498 65.4227C27.9292 65.4227 28.6243 65.046 28.6243 64.2612C28.6243 63.6019 28.2451 63.2252 27.4237 63.0368L25.4332 62.5031C23.6323 62.0323 22.7477 60.7765 22.7477 59.0499C22.7477 56.6954 24.6118 55.6281 26.6654 55.6281C29.035 55.6281 30.4883 57.0093 30.7411 58.9871H28.4031C28.2135 58.2023 27.3605 57.857 26.6338 57.857C25.686 57.857 25.0225 58.2337 25.0225 59.0499C25.0225 59.7406 25.5596 60.0231 26.1915 60.2115L28.1188 60.7451C29.9512 61.216 30.9307 62.3462 30.9307 64.3239C30.9307 66.4273 29.5405 67.7144 26.9814 67.7144C24.359 67.6516 22.6845 66.1134 22.5897 63.7903Z" fill="#2E604A"/>
<path d="M41.6411 63.5706C41.5463 66.0193 39.935 67.6517 37.1863 67.6517C34.3428 67.6517 32.7315 65.9251 32.7315 63.3194V59.929C32.7315 57.3233 34.3428 55.5967 37.1863 55.5967C39.935 55.5967 41.5463 57.2291 41.6411 59.6778H39.3663C39.2399 58.4849 38.3237 57.8256 37.1863 57.8256C35.9541 57.8256 35.0063 58.579 35.0063 59.929V63.3194C35.0063 64.6694 35.9541 65.4228 37.1863 65.4228C38.3237 65.4228 39.2399 64.7635 39.3663 63.5706H41.6411Z" fill="black"/>
<path d="M48.8445 67.4948H46.5697V63.2254L42.3993 55.7539H44.9584L47.7071 60.6512L50.4559 55.7539H53.015L48.8445 63.2254V67.4948Z" fill="black"/>
<path d="M62.7142 63.5706C62.6195 66.0193 61.0082 67.6517 58.2595 67.6517C55.416 67.6517 53.8047 65.9251 53.8047 63.3194V59.929C53.8047 57.3233 55.416 55.5967 58.2595 55.5967C61.0082 55.5967 62.6195 57.2291 62.7142 59.6778H60.4395C60.3131 58.4849 59.3969 57.8256 58.2595 57.8256C57.0273 57.8256 56.0795 58.579 56.0795 59.929V63.3194C56.0795 64.6694 57.0273 65.4228 58.2595 65.4228C59.3969 65.4228 60.3131 64.7635 60.4395 63.5706H62.7142Z" fill="black"/>
<path d="M67.0742 65.2659H72.003V67.4948H64.8311V55.7539H67.0742V65.2659Z" fill="black"/>
<path d="M76.0786 55.7539H73.8354V67.4635H76.0786V55.7539Z" fill="black"/>
<path d="M87.5473 67.4948H85.2725L80.9125 59.9291V67.4948H78.6377V55.7539H80.9125L85.2725 63.3195V55.7539H87.5473V67.4948Z" fill="black"/>
<path d="M94.3085 60.7765H98.7633V63.288C98.7633 65.8936 97.152 67.6202 94.3085 67.6202C91.4651 67.6202 89.8538 65.8936 89.8538 63.288V59.8975C89.8538 57.2918 91.4651 55.5652 94.3085 55.5652C96.9624 55.5652 98.5422 57.1035 98.7317 59.4266H96.4569C96.2674 58.3592 95.3827 57.7941 94.3085 57.7941C93.0764 57.7941 92.1285 58.5476 92.1285 59.8975V63.288C92.1285 64.6379 93.0764 65.3913 94.3085 65.3913C95.5407 65.3913 96.4885 64.6379 96.4885 63.288V62.974H94.3085V60.7765Z" fill="black"/>
</svg>
