<svg width="99" height="68" viewBox="0 0 99 68" fill="none" xmlns="http://www.w3.org/2000/svg">
<path d="M58.5122 31.4242C61.8612 34.7519 66.2844 36.5726 70.9919 36.5726C75.6994 36.5726 80.1542 34.7519 83.4716 31.4242L79.6171 27.5943C77.3107 29.886 74.2461 31.1417 70.9919 31.1417C67.7377 31.1417 64.6731 29.886 62.3667 27.5943C60.0603 25.3026 58.7966 22.2575 58.7966 19.0241C58.7966 15.7906 60.0603 12.7455 62.3667 10.4538L58.5122 6.59253C55.1633 9.92016 53.3308 14.3152 53.3308 18.9927C53.3308 23.7016 55.1949 28.0966 58.5122 31.4242Z" fill="#602120"/>
<path d="M86.2835 34.1868C82.2078 38.2365 76.7736 40.4653 70.9919 40.4653C65.2102 40.4653 59.8076 38.2365 55.7004 34.1868C47.2647 25.8049 47.2647 12.1804 55.7004 3.82992L51.8775 0L7.39294 44.2011H15.1019L44.2317 15.2569C43.9473 17.1719 43.9157 19.0868 44.0421 21.0018C40.5984 24.6748 36.9966 28.1594 33.2053 31.8323C29.6984 35.2227 26.0335 38.7701 22.5265 42.4745C21.8946 43.0396 21.2944 43.636 20.6941 44.2011H28.403C31.2465 41.2816 34.1532 38.4562 36.9966 35.6936C39.7453 33.0252 42.5888 30.2941 45.3375 27.4687C46.6328 31.33 48.7812 34.9402 51.8775 37.9853C56.9957 43.071 63.7885 45.8649 71.0235 45.8649C78.2586 45.8649 85.0513 43.071 90.1695 37.9853L86.2835 34.1868Z" fill="#602120"/>
<path d="M5.27619 59.207L3.94925 63.0055H6.57155L5.27619 59.207ZM3.19099 65.1088L2.36955 67.4947H0L4.202 55.7852H6.35039L10.584 67.4947H8.21443L7.3614 65.1402H3.19099V65.1088Z" fill="#602120"/>
<path d="M20.6625 55.754V63.2882C20.6625 65.8938 19.0512 67.6204 16.2077 67.6204C13.3642 67.6204 11.7529 65.8938 11.7529 63.2882V55.754H13.9961V63.2882C13.9961 64.6381 14.9439 65.3915 16.1761 65.3915C17.4083 65.3915 18.3561 64.6381 18.3561 63.2882V55.754H20.6625Z" fill="#602120"/>
<path d="M22.5897 63.7904H24.9277C25.054 64.7636 25.8439 65.4228 26.9497 65.4228C27.9291 65.4228 28.6242 65.0461 28.6242 64.2613C28.6242 63.602 28.2451 63.2253 27.4236 63.037L25.4332 62.5033C23.6323 62.0324 22.7476 60.7766 22.7476 59.05C22.7476 56.6955 24.6117 55.6282 26.6653 55.6282C29.0349 55.6282 30.4883 57.0095 30.741 58.9872H28.403C28.2135 58.2024 27.3604 57.8571 26.6338 57.8571C25.6859 57.8571 25.0224 58.2338 25.0224 59.05C25.0224 59.7407 25.5595 60.0232 26.1914 60.2116L28.1187 60.7453C29.9512 61.2162 30.9306 62.3463 30.9306 64.3241C30.9306 66.4274 29.5404 67.7145 26.9813 67.7145C24.359 67.6517 22.6844 66.1135 22.5897 63.7904Z" fill="#602120"/>
<path d="M41.641 63.5706C41.5462 66.0193 39.9349 67.6517 37.1862 67.6517C34.3427 67.6517 32.7314 65.9251 32.7314 63.3194V59.929C32.7314 57.3233 34.3427 55.5967 37.1862 55.5967C39.9349 55.5967 41.5462 57.2291 41.641 59.6778H39.3662C39.2398 58.4849 38.3236 57.8256 37.1862 57.8256C35.9541 57.8256 35.0062 58.579 35.0062 59.929V63.3194C35.0062 64.6694 35.9541 65.4228 37.1862 65.4228C38.3236 65.4228 39.2398 64.7635 39.3662 63.5706H41.641Z" fill="black"/>
<path d="M48.8445 67.4949H46.5697V63.2255L42.3993 55.754H44.9584L47.7071 60.6513L50.4558 55.754H53.0149L48.8445 63.2255V67.4949Z" fill="black"/>
<path d="M62.7142 63.5706C62.6195 66.0193 61.0082 67.6517 58.2595 67.6517C55.416 67.6517 53.8047 65.9251 53.8047 63.3194V59.929C53.8047 57.3233 55.416 55.5967 58.2595 55.5967C61.0082 55.5967 62.6195 57.2291 62.7142 59.6778H60.4395C60.3131 58.4849 59.3969 57.8256 58.2595 57.8256C57.0273 57.8256 56.0795 58.579 56.0795 59.929V63.3194C56.0795 64.6694 57.0273 65.4228 58.2595 65.4228C59.3969 65.4228 60.3131 64.7635 60.4395 63.5706H62.7142Z" fill="black"/>
<path d="M67.0743 65.266H72.003V67.4949H64.8311V55.754H67.0743V65.266Z" fill="black"/>
<path d="M76.0785 55.754H73.8353V67.4636H76.0785V55.754Z" fill="black"/>
<path d="M87.5473 67.4949H85.2725L80.9125 59.9293V67.4949H78.6378V55.754H80.9125L85.2725 63.3197V55.754H87.5473V67.4949Z" fill="black"/>
<path d="M94.3084 60.7765H98.7632V63.288C98.7632 65.8936 97.1519 67.6202 94.3084 67.6202C91.4649 67.6202 89.8536 65.8936 89.8536 63.288V59.8975C89.8536 57.2918 91.4649 55.5652 94.3084 55.5652C96.9623 55.5652 98.542 57.1035 98.7316 59.4266H96.4568C96.2673 58.3592 95.3826 57.7941 94.3084 57.7941C93.0762 57.7941 92.1284 58.5476 92.1284 59.8975V63.288C92.1284 64.6379 93.0762 65.3913 94.3084 65.3913C95.5406 65.3913 96.4884 64.6379 96.4884 63.288V62.974H94.3084V60.7765Z" fill="black"/>
</svg>
