<svg width="99" height="68" viewBox="0 0 99 68" fill="none" xmlns="http://www.w3.org/2000/svg">
<path d="M58.5123 31.4242C61.8613 34.7519 66.2845 36.5726 70.992 36.5726C75.6996 36.5726 80.1544 34.7519 83.4718 31.4242L79.6173 27.5943C77.3109 29.886 74.2462 31.1417 70.992 31.1417C67.7378 31.1417 64.6732 29.886 62.3668 27.5943C60.0604 25.3026 58.7966 22.2575 58.7966 19.0241C58.7966 15.7906 60.0604 12.7455 62.3668 10.4538L58.5123 6.59253C55.1633 9.92016 53.3308 14.3152 53.3308 18.9927C53.3308 23.7016 55.1949 28.0966 58.5123 31.4242Z" fill="#262859"/>
<path d="M86.2837 34.1868C82.208 38.2365 76.7738 40.4653 70.9921 40.4653C65.2104 40.4653 59.8078 38.2365 55.7005 34.1868C47.2649 25.8049 47.2649 12.1804 55.7005 3.82992L51.8776 0L7.39307 44.2011H15.102L44.2318 15.2569C43.9475 17.1719 43.9159 19.0868 44.0423 21.0018C40.5985 24.6748 36.9968 28.1594 33.2055 31.8323C29.6985 35.2227 26.0336 38.7701 22.5267 42.4745C21.8948 43.0396 21.2945 43.636 20.6942 44.2011H28.4032C31.2466 41.2816 34.1533 38.4562 36.9968 35.6936C39.7455 33.0252 42.5889 30.2941 45.3376 27.4687C46.633 31.33 48.7814 34.9402 51.8776 37.9853C56.9959 43.071 63.7886 45.8649 71.0237 45.8649C78.2587 45.8649 85.0515 43.071 90.1697 37.9853L86.2837 34.1868Z" fill="#262859"/>
<path d="M5.27623 59.207L3.94927 63.0055H6.57159L5.27623 59.207ZM3.19101 65.1088L2.36956 67.4947H0L4.20203 55.7852H6.35043L10.584 67.4947H8.21449L7.36144 65.1402H3.19101V65.1088Z" fill="#262859"/>
<path d="M20.6626 55.7539V63.2881C20.6626 65.8937 19.0513 67.6203 16.2078 67.6203C13.3644 67.6203 11.7531 65.8937 11.7531 63.2881V55.7539H13.9962V63.2881C13.9962 64.638 14.9441 65.3914 16.1762 65.3914C17.4084 65.3914 18.3562 64.638 18.3562 63.2881V55.7539H20.6626Z" fill="#262859"/>
<path d="M22.5898 63.7903H24.9278C25.0542 64.7635 25.844 65.4227 26.9498 65.4227C27.9293 65.4227 28.6243 65.046 28.6243 64.2612C28.6243 63.6019 28.2452 63.2252 27.4238 63.0368L25.4333 62.5031C23.6325 62.0323 22.7478 60.7765 22.7478 59.0499C22.7478 56.6954 24.6119 55.6281 26.6655 55.6281C29.0351 55.6281 30.4884 57.0093 30.7411 58.9871H28.4032C28.2136 58.2023 27.3606 57.857 26.6339 57.857C25.6861 57.857 25.0226 58.2337 25.0226 59.0499C25.0226 59.7406 25.5597 60.0231 26.1916 60.2115L28.1188 60.7451C29.9513 61.216 30.9307 62.3462 30.9307 64.3239C30.9307 66.4273 29.5406 67.7144 26.9814 67.7144C24.3591 67.6516 22.6846 66.1134 22.5898 63.7903Z" fill="#262859"/>
<path d="M41.6411 63.5706C41.5463 66.0193 39.935 67.6517 37.1863 67.6517C34.3429 67.6517 32.7316 65.9251 32.7316 63.3194V59.929C32.7316 57.3233 34.3429 55.5967 37.1863 55.5967C39.935 55.5967 41.5463 57.2291 41.6411 59.6778H39.3663C39.24 58.4849 38.3237 57.8256 37.1863 57.8256C35.9542 57.8256 35.0063 58.579 35.0063 59.929V63.3194C35.0063 64.6694 35.9542 65.4228 37.1863 65.4228C38.3237 65.4228 39.24 64.7635 39.3663 63.5706H41.6411Z" fill="black"/>
<path d="M48.8445 67.4948H46.5697V63.2254L42.3993 55.7539H44.9584L47.7071 60.6512L50.4558 55.7539H53.0149L48.8445 63.2254V67.4948Z" fill="black"/>
<path d="M62.7145 63.5706C62.6197 66.0193 61.0084 67.6517 58.2597 67.6517C55.4161 67.6517 53.8048 65.9251 53.8048 63.3194V59.929C53.8048 57.3233 55.4161 55.5967 58.2597 55.5967C61.0084 55.5967 62.6197 57.2291 62.7145 59.6778H60.4397C60.3133 58.4849 59.3971 57.8256 58.2597 57.8256C57.0275 57.8256 56.0796 58.579 56.0796 59.929V63.3194C56.0796 64.6694 57.0275 65.4228 58.2597 65.4228C59.3971 65.4228 60.3133 64.7635 60.4397 63.5706H62.7145Z" fill="black"/>
<path d="M67.0744 65.2659H72.0031V67.4948H64.8312V55.7539H67.0744V65.2659Z" fill="black"/>
<path d="M76.0788 55.7539H73.8354V67.4635H76.0788V55.7539Z" fill="black"/>
<path d="M87.5473 67.4948H85.2725L80.9125 59.9291V67.4948H78.6377V55.7539H80.9125L85.2725 63.3195V55.7539H87.5473V67.4948Z" fill="black"/>
<path d="M94.3084 60.7765H98.7632V63.288C98.7632 65.8936 97.1519 67.6202 94.3084 67.6202C91.4649 67.6202 89.8536 65.8936 89.8536 63.288V59.8975C89.8536 57.2918 91.4649 55.5652 94.3084 55.5652C96.9623 55.5652 98.542 57.1035 98.7316 59.4266H96.4568C96.2673 58.3592 95.3826 57.7941 94.3084 57.7941C93.0762 57.7941 92.1284 58.5476 92.1284 59.8975V63.288C92.1284 64.6379 93.0762 65.3913 94.3084 65.3913C95.5406 65.3913 96.4884 64.6379 96.4884 63.288V62.974H94.3084V60.7765Z" fill="black"/>
</svg>
