<svg width="99" height="68" viewBox="0 0 99 68" fill="none" xmlns="http://www.w3.org/2000/svg">
<path d="M58.5123 31.4242C61.8612 34.7519 66.2844 36.5726 70.9919 36.5726C75.6995 36.5726 80.1543 34.7519 83.4716 31.4242L79.6172 27.5943C77.3108 29.886 74.2461 31.1417 70.9919 31.1417C67.7377 31.1417 64.6731 29.886 62.3667 27.5943C60.0604 25.3026 58.7966 22.2575 58.7966 19.0241C58.7966 15.7906 60.0604 12.7455 62.3667 10.4538L58.5123 6.59253C55.1633 9.92016 53.3308 14.3152 53.3308 18.9927C53.3308 23.7016 55.1949 28.0966 58.5123 31.4242Z" fill="#EBBA4B"/>
<path d="M86.2837 34.1868C82.208 38.2365 76.7738 40.4653 70.9921 40.4653C65.2104 40.4653 59.8078 38.2365 55.7005 34.1868C47.2649 25.8049 47.2649 12.1804 55.7005 3.82992L51.8776 0L7.39307 44.2011H15.102L44.2318 15.2569C43.9475 17.1719 43.9159 19.0868 44.0423 21.0018C40.5985 24.6748 36.9968 28.1594 33.2055 31.8323C29.6985 35.2227 26.0336 38.7701 22.5267 42.4745C21.8948 43.0396 21.2945 43.636 20.6942 44.2011H28.4032C31.2466 41.2816 34.1533 38.4562 36.9968 35.6936C39.7455 33.0252 42.5889 30.2941 45.3376 27.4687C46.633 31.33 48.7814 34.9402 51.8776 37.9853C56.9959 43.071 63.7886 45.8649 71.0237 45.8649C78.2587 45.8649 85.0515 43.071 90.1697 37.9853L86.2837 34.1868Z" fill="#EBBA4B"/>
<path d="M5.27623 59.207L3.94927 63.0055H6.57159L5.27623 59.207ZM3.19101 65.1088L2.36956 67.4947H0L4.20203 55.7852H6.35043L10.584 67.4947H8.21449L7.36144 65.1402H3.19101V65.1088Z" fill="#EBBA4B"/>
<path d="M20.6626 55.7539V63.2881C20.6626 65.8937 19.0513 67.6203 16.2078 67.6203C13.3644 67.6203 11.7531 65.8937 11.7531 63.2881V55.7539H13.9962V63.2881C13.9962 64.638 14.9441 65.3914 16.1762 65.3914C17.4084 65.3914 18.3562 64.638 18.3562 63.2881V55.7539H20.6626Z" fill="#EBBA4B"/>
<path d="M22.5898 63.7903H24.9278C25.0541 64.7635 25.844 65.4227 26.9498 65.4227C27.9292 65.4227 28.6242 65.046 28.6242 64.2612C28.6242 63.6019 28.2451 63.2252 27.4237 63.0368L25.4333 62.5031C23.6324 62.0323 22.7478 60.7765 22.7478 59.0499C22.7478 56.6954 24.6118 55.6281 26.6654 55.6281C29.035 55.6281 30.4883 57.0093 30.741 58.9871H28.4031C28.2135 58.2023 27.3605 57.857 26.6338 57.857C25.686 57.857 25.0226 58.2337 25.0226 59.0499C25.0226 59.7406 25.5596 60.0231 26.1915 60.2115L28.1187 60.7451C29.9512 61.216 30.9306 62.3462 30.9306 64.3239C30.9306 66.4273 29.5404 67.7144 26.9814 67.7144C24.3591 67.6516 22.6846 66.1134 22.5898 63.7903Z" fill="#EBBA4B"/>
<path d="M41.6409 63.5706C41.5461 66.0193 39.9348 67.6517 37.1861 67.6517C34.3426 67.6517 32.7313 65.9251 32.7313 63.3194V59.929C32.7313 57.3233 34.3426 55.5967 37.1861 55.5967C39.9348 55.5967 41.5461 57.2291 41.6409 59.6778H39.3661C39.2397 58.4849 38.3235 57.8256 37.1861 57.8256C35.9539 57.8256 35.0061 58.579 35.0061 59.929V63.3194C35.0061 64.6694 35.9539 65.4228 37.1861 65.4228C38.3235 65.4228 39.2397 64.7635 39.3661 63.5706H41.6409Z" fill="black"/>
<path d="M48.8445 67.4948H46.5697V63.2254L42.3992 55.7539H44.9583L47.7071 60.6512L50.4558 55.7539H53.0149L48.8445 63.2254V67.4948Z" fill="black"/>
<path d="M62.7144 63.5706C62.6196 66.0193 61.0083 67.6517 58.2595 67.6517C55.416 67.6517 53.8047 65.9251 53.8047 63.3194V59.929C53.8047 57.3233 55.416 55.5967 58.2595 55.5967C61.0083 55.5967 62.6196 57.2291 62.7144 59.6778H60.4396C60.3132 58.4849 59.3969 57.8256 58.2595 57.8256C57.0273 57.8256 56.0795 58.579 56.0795 59.929V63.3194C56.0795 64.6694 57.0273 65.4228 58.2595 65.4228C59.3969 65.4228 60.3132 64.7635 60.4396 63.5706H62.7144Z" fill="black"/>
<path d="M67.0742 65.2659H72.003V67.4948H64.8311V55.7539H67.0742V65.2659Z" fill="black"/>
<path d="M76.0786 55.7539H73.8353V67.4635H76.0786V55.7539Z" fill="black"/>
<path d="M87.5473 67.4948H85.2725L80.9125 59.9291V67.4948H78.6377V55.7539H80.9125L85.2725 63.3195V55.7539H87.5473V67.4948Z" fill="black"/>
<path d="M94.3084 60.7765H98.7632V63.288C98.7632 65.8936 97.1519 67.6202 94.3084 67.6202C91.4649 67.6202 89.8536 65.8936 89.8536 63.288V59.8975C89.8536 57.2918 91.4649 55.5652 94.3084 55.5652C96.9623 55.5652 98.542 57.1035 98.7316 59.4266H96.4568C96.2673 58.3592 95.3826 57.7941 94.3084 57.7941C93.0762 57.7941 92.1284 58.5476 92.1284 59.8975V63.288C92.1284 64.6379 93.0762 65.3913 94.3084 65.3913C95.5406 65.3913 96.4884 64.6379 96.4884 63.288V62.974H94.3084V60.7765Z" fill="black"/>
</svg>
